P3
# Created by GIMP version 2.10.38 PNM plug-in
10 10
255
255
255
255
255
255
255
255
255
255
255
255
255
255
255
255
190
190
207
255
255
255
255
255
255
205
205
217
205
205
217
255
255
255
204
204
204
244
244
244
255
255
255
255
255
255
190
190
207
255
255
255
255
255
255
244
244
247
244
244
247
255
255
255
204
204
204
244
244
244
255
255
255
255
255
255
255
255
255
164
164
164
235
235
235
255
255
255
255
255
255
255
255
255
255
255
255
255
255
255
255
255
255
255
255
255
255
255
255
235
235
235
252
252
252
255
255
255
255
255
255
255
255
255
255
255
255
255
255
255
255
255
255
255
255
255
255
255
255
255
255
255
255
255
255
255
255
255
255
255
255
232
232
238
128
128
168
255
255
255
244
244
244
244
244
244
255
255
255
255
255
255
255
255
255
255
255
255
255
255
255
255
255
255
255
255
255
255
255
255
204
204
204
204
204
204
255
255
255
255
255
255
125
125
125
232
232
232
255
255
255
255
255
255
225
225
225
225
225
225
255
255
255
255
255
255
255
255
255
255
255
255
255
255
255
255
255
255
255
255
255
255
255
255
225
225
225
225
225
225
255
255
255
255
255
255
166
166
191
235
235
240
255
255
255
128
128
168
255
255
255
255
255
255
255
255
255
255
255
255
255
255
255
255
255
255
235
235
240
252
252
253
255
255
255
232
232
238
255
255
255
